name ./resultDataOpenSim/trcMotMarkerGrf/sub10/grf-03-08.mot
datacolumns 19
datarows 12
range 0.49600000 0.54000000
endheader

                time	     ground_force_vx	     ground_force_vy	     ground_force_vz	     ground_force_px	     ground_force_py	     ground_force_pz	   l_ground_force_vx	   l_ground_force_vy	   l_ground_force_vz	   l_ground_force_px	   l_ground_force_py	   l_ground_force_pz	     ground_torque_x	     ground_torque_y	     ground_torque_z	   l_ground_torque_x	   l_ground_torque_y	   l_ground_torque_z	
          0.49600000	         12.28031105	        403.43784030	        -13.10469107	         -0.72077891	          0.00000000	          0.04523813	          0.00000000	          0.00000000	          0.00000000	          0.00000000	          0.00000000	          0.00000000	          0.00000000	          1.38798284	          0.00000000	          0.00000000	          0.00000000	          0.00000000	
          0.50000000	         14.12967982	        403.02420104	        -14.28154246	         -0.72051979	          0.00000000	          0.04551339	          0.00000000	          0.00000000	          0.00000000	          0.00000000	          0.00000000	          0.00000000	          0.00000000	          1.42801167	          0.00000000	          0.00000000	          0.00000000	          0.00000000	
          0.50400000	         16.19256117	        403.17377864	        -15.68227171	         -0.72038033	          0.00000000	          0.04580509	          0.00000000	          0.00000000	          0.00000000	          0.00000000	          0.00000000	          0.00000000	          0.00000000	          1.43856582	          0.00000000	          0.00000000	          0.00000000	          0.00000000	
          0.50800000	         18.48107730	        404.00750001	        -17.20248724	         -0.72032830	          0.00000000	          0.04610702	          0.00000000	          0.00000000	          0.00000000	          0.00000000	          0.00000000	          0.00000000	          0.00000000	          1.42910149	          0.00000000	          0.00000000	          0.00000000	          0.00000000	
          0.51200000	         20.98275941	        405.62950337	        -18.72029893	         -0.72033497	          0.00000000	          0.04641090	          0.00000000	          0.00000000	          0.00000000	          0.00000000	          0.00000000	          0.00000000	          0.00000000	          1.41246610	          0.00000000	          0.00000000	          0.00000000	          0.00000000	
          0.51600000	         23.65708433	        408.10005227	        -20.11929444	         -0.72038561	          0.00000000	          0.04670330	          0.00000000	          0.00000000	          0.00000000	          0.00000000	          0.00000000	          0.00000000	          0.00000000	          1.40238665	          0.00000000	          0.00000000	          0.00000000	          0.00000000	
          0.52000000	         26.43820497	        411.41623111	        -21.31085492	         -0.72045724	          0.00000000	          0.04696722	          0.00000000	          0.00000000	          0.00000000	          0.00000000	          0.00000000	          0.00000000	          0.00000000	          1.41080715	          0.00000000	          0.00000000	          0.00000000	          0.00000000	
          0.52400000	         29.24917565	        415.51798197	        -22.25029598	         -0.72051220	          0.00000000	          0.04718956	          0.00000000	          0.00000000	          0.00000000	          0.00000000	          0.00000000	          0.00000000	          0.00000000	          1.44579222	          0.00000000	          0.00000000	          0.00000000	          0.00000000	
          0.52800000	         32.02534513	        420.32744482	        -22.94411771	         -0.72051123	          0.00000000	          0.04736407	          0.00000000	          0.00000000	          0.00000000	          0.00000000	          0.00000000	          0.00000000	          0.00000000	          1.51043658	          0.00000000	          0.00000000	          0.00000000	          0.00000000	
          0.53200000	         34.73457249	        425.79321421	        -23.44920791	         -0.72043805	          0.00000000	          0.04749375	          0.00000000	          0.00000000	          0.00000000	          0.00000000	          0.00000000	          0.00000000	          0.00000000	          1.60283136	          0.00000000	          0.00000000	          0.00000000	          0.00000000	
          0.53600000	         37.38413834	        431.90317796	        -23.86469611	         -0.72029728	          0.00000000	          0.04758952	          0.00000000	          0.00000000	          0.00000000	          0.00000000	          0.00000000	          0.00000000	          0.00000000	          1.71687829	          0.00000000	          0.00000000	          0.00000000	          0.00000000	
          0.54000000	         40.01413260	        438.66605636	        -24.31632781	         -0.72010494	          0.00000000	          0.04766815	          0.00000000	          0.00000000	          0.00000000	          0.00000000	          0.00000000	          0.00000000	          0.00000000	          1.84368775	          0.00000000	          0.00000000	          0.00000000	          0.00000000	
